<svg width="196" height="220" viewBox="0 0 196 220" fill="none" xmlns="http://www.w3.org/2000/svg">
<g clip-path="url(#clip0_103_38)">
<path d="M195.35 0.650391V195.35H0.650391V0.650391H195.35Z" stroke="#E1251B" stroke-width="1.3"/>
<path d="M56.2401 72.38H41.8401V66.71H76.7401V72.38H62.5101V129.3H56.2401V72.38Z" fill="white"/>
<path d="M109.18 66.7002H115.45V94.2302H147.89V66.7002H154.16V129.29H147.89V99.9002H115.45V129.29H109.18V66.7002Z" fill="white"/>
<path d="M0.27002 208.15V206.98H6.79002V208.15H4.13002V218.89H2.92002V208.15H0.27002Z" fill="white"/>
<path d="M17.0001 206.98L22.5501 218.89H21.2601L19.3901 214.97H14.2601L12.4001 218.89H11.0701L16.6901 206.98H16.9801H17.0001ZM16.8501 209.51L14.8101 213.82H18.8801L16.8501 209.51Z" fill="white"/>
<path d="M29.3801 218.89V206.98H29.6401L37.5601 216.11V206.98H38.7301V218.89H38.4601L30.6001 209.87V218.89H29.3701H29.3801Z" fill="white"/>
<path d="M58.0901 208.98L57.1701 209.85C56.5101 209.2 55.7801 208.7 54.9901 208.37C54.2001 208.03 53.4301 207.86 52.6801 207.86C51.7501 207.86 50.8601 208.09 50.0101 208.55C49.1701 209.01 48.5101 209.63 48.0501 210.42C47.5901 211.21 47.3501 212.04 47.3501 212.91C47.3501 213.78 47.5901 214.66 48.0701 215.46C48.5501 216.27 49.2101 216.9 50.0601 217.36C50.9101 217.82 51.8301 218.05 52.8401 218.05C54.0601 218.05 55.1001 217.71 55.9501 217.01C56.8001 216.32 57.3001 215.42 57.4601 214.32H53.6601V213.17H58.7901C58.7801 215.01 58.2301 216.47 57.1501 217.55C56.0701 218.63 54.6201 219.17 52.8101 219.17C50.6101 219.17 48.8601 218.42 47.5801 216.92C46.5901 215.76 46.1001 214.43 46.1001 212.91C46.1001 211.78 46.3801 210.73 46.9501 209.76C47.5201 208.79 48.2901 208.03 49.2801 207.48C50.2701 206.93 51.3801 206.66 52.6301 206.66C53.6401 206.66 54.5901 206.84 55.4801 207.21C56.3701 207.57 57.2401 208.16 58.0901 208.96V208.98Z" fill="white"/>
<path d="M71.7 206.69C73.5 206.69 75.01 207.29 76.23 208.5C77.45 209.71 78.05 211.18 78.05 212.94C78.05 214.7 77.44 216.16 76.23 217.38C75.02 218.59 73.54 219.2 71.8 219.2C70.06 219.2 68.54 218.6 67.33 217.39C66.12 216.18 65.51 214.72 65.51 213C65.51 211.86 65.79 210.8 66.34 209.82C66.89 208.84 67.65 208.08 68.6 207.53C69.55 206.98 70.59 206.7 71.7 206.7V206.69ZM71.76 207.84C70.88 207.84 70.04 208.07 69.26 208.53C68.48 208.99 67.85 209.61 67.41 210.38C66.97 211.16 66.75 212.02 66.75 212.98C66.75 214.4 67.24 215.59 68.22 216.56C69.2 217.53 70.38 218.02 71.77 218.02C72.69 218.02 73.55 217.8 74.34 217.35C75.13 216.9 75.74 216.29 76.18 215.51C76.62 214.73 76.84 213.87 76.84 212.92C76.84 211.97 76.62 211.12 76.18 210.36C75.74 209.6 75.12 208.98 74.32 208.53C73.52 208.08 72.67 207.84 71.77 207.84H71.76Z" fill="white"/>
<path d="M85.48 206.98H87.85C89.17 206.98 90.07 207.03 90.54 207.14C91.25 207.3 91.82 207.65 92.26 208.18C92.7 208.71 92.92 209.37 92.92 210.15C92.92 210.8 92.77 211.37 92.46 211.86C92.15 212.35 91.72 212.72 91.15 212.97C90.58 213.22 89.8 213.35 88.8 213.35L93.08 218.88H91.61L87.33 213.35H86.66V218.88H85.47V206.97L85.48 206.98ZM86.67 208.15V212.2L88.72 212.22C89.51 212.22 90.1 212.14 90.48 211.99C90.86 211.84 91.16 211.6 91.37 211.27C91.58 210.94 91.69 210.57 91.69 210.16C91.69 209.75 91.58 209.4 91.37 209.07C91.16 208.74 90.87 208.51 90.52 208.37C90.17 208.23 89.59 208.16 88.77 208.16H86.67V208.15Z" fill="white"/>
<path d="M100.46 206.98H107.28V208.15H101.65V211.88H107.23V213.05H101.65V217.73H107.23V218.9H100.46V206.99V206.98Z" fill="white"/>
<path d="M114.32 218.89V206.98H114.58L122.5 216.11V206.98H123.67V218.89H123.4L115.54 209.87V218.89H114.31H114.32Z" fill="white"/>
<path d="M141.09 206.98H142.28V211.97H148.34V206.98H149.53V218.89H148.34V213.14H142.28V218.89H141.09V206.98Z" fill="white"/>
<path d="M163.07 206.69C164.87 206.69 166.38 207.29 167.6 208.5C168.82 209.71 169.42 211.18 169.42 212.94C169.42 214.7 168.81 216.16 167.6 217.38C166.39 218.59 164.91 219.2 163.17 219.2C161.43 219.2 159.91 218.6 158.7 217.39C157.49 216.18 156.88 214.72 156.88 213C156.88 211.86 157.16 210.8 157.71 209.82C158.26 208.84 159.02 208.08 159.97 207.53C160.92 206.98 161.96 206.7 163.07 206.7V206.69ZM163.12 207.84C162.24 207.84 161.4 208.07 160.62 208.53C159.84 208.99 159.21 209.61 158.77 210.38C158.33 211.16 158.11 212.02 158.11 212.98C158.11 214.4 158.6 215.59 159.58 216.56C160.56 217.53 161.74 218.02 163.13 218.02C164.05 218.02 164.91 217.8 165.7 217.35C166.49 216.9 167.1 216.29 167.54 215.51C167.98 214.73 168.2 213.87 168.2 212.92C168.2 211.97 167.98 211.12 167.54 210.36C167.1 209.6 166.48 208.98 165.68 208.53C164.88 208.08 164.03 207.84 163.13 207.84H163.12Z" fill="white"/>
<path d="M176.78 206.98H177.97V217.74H182.55V218.89H176.78V206.98Z" fill="white"/>
<path d="M189.41 206.98H195.37V208.15H190.59V211.88H195.37V213.05H190.59V218.89H189.4V206.98H189.41Z" fill="white"/>
</g>
<defs>
<clipPath id="clip0_103_38">
<rect width="196" height="219.2" fill="white"/>
</clipPath>
</defs>
</svg>
